<svg xmlns="http://www.w3.org/2000/svg" xmlns:svgjs="http://svgjs.com/svgjs" xmlns:xlink="http://www.w3.org/1999/xlink" width="288" height="288"><svg xmlns="http://www.w3.org/2000/svg" width="288" height="288" viewBox="0 0 64 64"><path fill="#fff" d="M15.07 9.64h-8a3.5 3.5 0 0 0-3.5 3.5v39a3.5 3.5 0 0 0 3.5 3.5h8a3.5 3.5 0 0 0 3.5-3.5v-39a3.5 3.5 0 0 0-3.5-3.5Zm-8.5 32v-18h9v18Zm.5-29h8a.5.5 0 0 1 .5.5v2.5h-9v-2.5a.5.5 0 0 1 .5-.5Zm8 40h-8a.508.508 0 0 1-.5-.5v-2.5h9v2.5a.5.5 0 0 1-.5.5Zm45.21-4.39-1.14-3.83-1.42-4.79-5.98-20.13-1.41-4.75c0-.02-.01-.03-.01-.05s-.01-.02-.01-.03l-1.13-3.8a3.5 3.5 0 0 0-4.35-2.36l-7.67 2.28a3.448 3.448 0 0 0-1.78 1.23 3.492 3.492 0 0 0-3.31-2.38h-8a3.5 3.5 0 0 0-3.5 3.5v39a3.5 3.5 0 0 0 3.5 3.5h8a3.5 3.5 0 0 0 3.5-3.5V17.73l.37 1.24 1.4 4.72c.01.03.01.05.02.08 0 .01.01.02.01.03l5.97 20.1 1.42 4.76c-.01.01 0 .02 0 .03s.01.02.01.03l1.13 3.8a3.474 3.474 0 0 0 1.69 2.08 3.415 3.415 0 0 0 2.66.28l7.67-2.27a3.513 3.513 0 0 0 2.36-4.36Zm-36.71-6.61v-18h9v18Zm0-28.5a.5.5 0 0 1 .5-.5h8a.5.5 0 0 1 .5.5v2.5h-9Zm8.5 39.5h-8a.508.508 0 0 1-.5-.5v-2.5h9v2.5a.5.5 0 0 1-.5.5Zm5.94-38.98 7.67-2.28a.772.772 0 0 1 .15-.02.51.51 0 0 1 .48.36l.71 2.4-8.63 2.56-.71-2.4a.5.5 0 0 1 .33-.62Zm11.29 8.13 5.12 17.26-8.63 2.55-5.12-17.25Zm7.77 27.94-7.67 2.28a.541.541 0 0 1-.38-.04.512.512 0 0 1-.24-.3l-.71-2.4 8.63-2.56.71 2.4a.514.514 0 0 1-.34.62Z" class="color88e2de svgShape"/></svg></svg>